<svg height="32" viewBox="0 0 32 32" width="32" xmlns="http://www.w3.org/2000/svg"><g fill="none" fill-rule="evenodd"><circle cx="16.059" cy="16.059" r="15.23"/><path d="m8 22.857 7.429-16h1.142l7.429 16h-3.429l-.571-2.286h-8l-.571 2.286zm8 9.143c-8.837 0-16-7.163-16-16s7.163-16 16-16 16 7.163 16 16-7.163 16-16 16zm0-2.286c7.574 0 13.714-6.14 13.714-13.714s-6.14-13.714-13.714-13.714c-7.574 0-13.714 6.14-13.714 13.714s6.14 13.714 13.714 13.714zm-2.857-11.428 2.857-6.857 2.857 6.857z" fill="#000"/></g></svg>